<svg width="184" height="39" viewBox="0 0 184 39" fill="none" xmlns="http://www.w3.org/2000/svg">
<path d="M9.3368 38.2224C8.31209 38.2224 7.47951 37.8894 6.83906 37.2233C6.19862 36.5829 5.87839 35.7631 5.87839 34.764V22.6212C5.87839 21.5964 5.35323 21.0841 4.3029 21.0841H0.421791V17.3183H4.3029C5.35323 17.3183 5.87839 16.8059 5.87839 15.7812V3.63833C5.87839 2.63923 6.19862 1.81946 6.83906 1.17901C7.47951 0.51295 8.31209 0.179918 9.3368 0.179918H15.6004V3.56147H10.7202C10.0285 3.56147 9.68264 3.94574 9.68264 4.71428V15.8196C9.68264 16.7162 9.41366 17.4592 8.87568 18.0484C8.36332 18.612 7.65883 18.8938 6.76221 18.8938H6.33951V19.5086H6.76221C7.65883 19.5086 8.36332 19.8032 8.87568 20.3924C9.41366 20.956 9.68264 21.6861 9.68264 22.5827V33.6881C9.68264 34.4566 10.0285 34.8409 10.7202 34.8409H15.6004V38.2224H9.3368ZM168.408 38.2224V34.8409H173.289C173.98 34.8409 174.326 34.4566 174.326 33.6881V22.5827C174.326 21.6861 174.582 20.956 175.095 20.3924C175.633 19.8032 176.35 19.5086 177.246 19.5086H177.708V18.8938H177.246C176.35 18.8938 175.633 18.612 175.095 18.0484C174.582 17.4592 174.326 16.7162 174.326 15.8196V4.71428C174.326 3.94574 173.98 3.56147 173.289 3.56147H168.408V0.179918H174.672C175.697 0.179918 176.529 0.51295 177.17 1.17901C177.836 1.81946 178.169 2.63923 178.169 3.63833V15.7812C178.169 16.8059 178.681 17.3183 179.706 17.3183H183.587V21.0841H179.706C178.681 21.0841 178.169 21.5964 178.169 22.6212V34.764C178.169 35.7631 177.836 36.5829 177.17 37.2233C176.529 37.8894 175.697 38.2224 174.672 38.2224H168.408Z" fill="#7CB4FF"/>
<path d="M37.7765 29.538C35.9576 29.538 34.3053 29.1537 32.8195 28.3852C31.3592 27.6166 30.1936 26.5023 29.3226 25.042C28.4772 23.5818 28.0545 21.827 28.0545 19.7776V19.278C28.0545 17.2286 28.4772 15.4866 29.3226 14.052C30.1936 12.5918 31.3592 11.4774 32.8195 10.7089C34.3053 9.9147 35.9576 9.51762 37.7765 9.51762C39.5954 9.51762 41.1453 9.85066 42.4262 10.5167C43.707 11.1828 44.7318 12.0666 45.5003 13.1682C46.2945 14.2697 46.8068 15.4866 47.0374 16.8187L43.1947 17.6257C43.0666 16.7803 42.7976 16.0117 42.3877 15.3201C41.9778 14.6284 41.4014 14.0776 40.6585 13.6677C39.9156 13.2578 38.9806 13.0529 37.8534 13.0529C36.7518 13.0529 35.7527 13.3091 34.8561 13.8214C33.9851 14.3082 33.2934 15.0255 32.781 15.9733C32.2687 16.8956 32.0125 18.0228 32.0125 19.3549V19.7007C32.0125 21.0328 32.2687 22.1728 32.781 23.1207C33.2934 24.0686 33.9851 24.7859 34.8561 25.2726C35.7527 25.7593 36.7518 26.0027 37.8534 26.0027C39.5185 26.0027 40.7866 25.58 41.6576 24.7346C42.5286 23.8636 43.0794 22.7621 43.31 21.4299L47.1527 22.3137C46.8452 23.6203 46.2945 24.8243 45.5003 25.9259C44.7318 27.0274 43.707 27.9112 42.4262 28.5773C41.1453 29.2178 39.5954 29.538 37.7765 29.538ZM60.5942 29.538C58.6985 29.538 57.0077 29.1537 55.5219 28.3852C54.0617 27.591 52.9089 26.4638 52.0635 25.0036C51.2181 23.5434 50.7954 21.8142 50.7954 19.816V19.2396C50.7954 17.2414 51.2181 15.525 52.0635 14.0904C52.9089 12.6302 54.0617 11.503 55.5219 10.7089C57.0077 9.9147 58.6985 9.51762 60.5942 9.51762C62.4899 9.51762 64.1807 9.9147 65.6665 10.7089C67.1524 11.503 68.318 12.6302 69.1634 14.0904C70.0088 15.525 70.4315 17.2414 70.4315 19.2396V19.816C70.4315 21.8142 70.0088 23.5434 69.1634 25.0036C68.318 26.4638 67.1524 27.591 65.6665 28.3852C64.1807 29.1537 62.4899 29.538 60.5942 29.538ZM60.5942 26.0027C62.3362 26.0027 63.7452 25.4519 64.8212 24.3504C65.9227 23.2232 66.4735 21.6733 66.4735 19.7007V19.3549C66.4735 17.3823 65.9355 15.8452 64.8596 14.7437C63.7836 13.6165 62.3618 13.0529 60.5942 13.0529C58.8778 13.0529 57.4688 13.6165 56.3673 14.7437C55.2913 15.8452 54.7533 17.3823 54.7533 19.3549V19.7007C54.7533 21.6733 55.2913 23.2232 56.3673 24.3504C57.4688 25.4519 58.8778 26.0027 60.5942 26.0027ZM83.1982 29.538C81.6355 29.538 80.1881 29.1537 78.8559 28.3852C77.5238 27.6166 76.4479 26.5151 75.6281 25.0805C74.8339 23.6203 74.4369 21.8654 74.4369 19.816V19.2396C74.4369 17.2158 74.8339 15.4738 75.6281 14.0136C76.4222 12.5533 77.4854 11.439 78.8175 10.6704C80.1496 9.90189 81.6099 9.51762 83.1982 9.51762C84.4278 9.51762 85.4525 9.67133 86.2723 9.97875C87.1177 10.2862 87.8094 10.6832 88.3474 11.17C88.8853 11.6311 89.2952 12.1178 89.577 12.6302H90.1918V2.10126H94.1498V29H90.2687V26.3101H89.6539C89.1671 27.1299 88.4242 27.8728 87.4251 28.5389C86.4516 29.2049 85.0426 29.538 83.1982 29.538ZM84.3125 26.0796C86.0289 26.0796 87.4379 25.5288 88.5395 24.4272C89.6667 23.3256 90.2303 21.7501 90.2303 19.7007V19.3549C90.2303 17.3311 89.6795 15.7684 88.5779 14.6668C87.4763 13.5652 86.0546 13.0145 84.3125 13.0145C82.6218 13.0145 81.2128 13.5652 80.0856 14.6668C78.984 15.7684 78.4332 17.3311 78.4332 19.3549V19.7007C78.4332 21.7501 78.984 23.3256 80.0856 24.4272C81.2128 25.5288 82.6218 26.0796 84.3125 26.0796ZM108.661 29.538C106.739 29.538 105.061 29.1409 103.627 28.3467C102.192 27.527 101.065 26.387 100.245 24.9268C99.4511 23.4409 99.054 21.7245 99.054 19.7776V19.3165C99.054 17.3439 99.4511 15.6275 100.245 14.1673C101.039 12.6814 102.141 11.5414 103.55 10.7473C104.985 9.92751 106.637 9.51762 108.507 9.51762C110.326 9.51762 111.914 9.92751 113.272 10.7473C114.655 11.5414 115.731 12.6558 116.5 14.0904C117.268 15.525 117.653 17.203 117.653 19.1243V20.623H103.089C103.14 22.2881 103.691 23.6203 104.741 24.6193C105.817 25.5928 107.149 26.0796 108.738 26.0796C110.223 26.0796 111.338 25.7465 112.081 25.0805C112.849 24.4144 113.438 23.6459 113.848 22.7749L117.115 24.4656C116.756 25.1829 116.231 25.9387 115.539 26.7328C114.873 27.527 113.989 28.193 112.888 28.731C111.786 29.269 110.377 29.538 108.661 29.538ZM103.127 17.5872H113.618C113.515 16.1526 113.003 15.0383 112.081 14.2441C111.158 13.4243 109.954 13.0145 108.469 13.0145C106.983 13.0145 105.766 13.4243 104.818 14.2441C103.896 15.0383 103.332 16.1526 103.127 17.5872ZM122.417 29V10.0556H126.298V12.2844H126.913C127.22 11.4902 127.707 10.9138 128.373 10.5551C129.065 10.1709 129.91 9.97875 130.909 9.97875H133.176V13.5524H130.755C129.475 13.5524 128.424 13.9111 127.605 14.6284C126.785 15.3201 126.375 16.396 126.375 17.8562V29H122.417ZM139.468 36.6854V33.2269H150.035C150.752 33.2269 151.111 32.8427 151.111 32.0741V26.2333H150.496C150.265 26.7456 149.907 27.2452 149.42 27.7319C148.959 28.193 148.331 28.5773 147.537 28.8847C146.743 29.1921 145.744 29.3458 144.54 29.3458C143.105 29.3458 141.824 29.0256 140.697 28.3852C139.57 27.7447 138.686 26.8353 138.046 25.6569C137.405 24.4784 137.085 23.0823 137.085 21.4684V10.0556H141.043V21.1609C141.043 22.8005 141.453 24.0173 142.273 24.8115C143.092 25.58 144.232 25.9643 145.693 25.9643C147.307 25.9643 148.6 25.4263 149.574 24.3504C150.573 23.2744 151.072 21.7117 151.072 19.6623V10.0556H155.03V32.8811C155.03 34.0339 154.685 34.9562 153.993 35.6478C153.327 36.3395 152.405 36.6854 151.226 36.6854H139.468Z" fill="#ECECEC"/>
</svg>
