<svg width="132" height="132" viewBox="0 0 132 132" fill="none" xmlns="http://www.w3.org/2000/svg">
<g clip-path="url(#clip0_261_163)">
<path d="M66.4889 0C29.7366 0 1.47989e-05 29.7421 1.47989e-05 66.5C-0.00581406 75.2345 1.71028 83.8845 5.05015 91.9553C8.39003 100.026 13.2882 107.359 19.4644 113.536C25.6407 119.712 32.9739 124.61 41.0447 127.95C49.1154 131.29 57.7655 133.006 66.5 133C103.258 133 133 103.258 133 66.5C132.994 29.7421 103.009 0 66.4889 0ZM35.3004 80.7698C37.4728 83.6681 40.3766 84.8817 44.483 84.8817C46.4226 84.8817 48.3566 84.6379 50.0468 83.9119C51.7426 83.1915 53.6766 82.2162 56.0872 80.7698L62.8647 90.44C57.3064 95.0396 51.0166 97.2119 43.7626 97.2119C37.9549 97.2119 33.1226 96.0038 28.7723 93.5877C24.5492 91.0963 21.1767 87.3878 19.0966 82.9477C16.9243 78.3481 15.7106 73.0281 15.7106 66.7383C15.7106 60.6979 16.9243 55.134 19.0911 50.54C21.1599 45.9632 24.5285 42.0955 28.7779 39.4179C32.8843 36.7579 37.9604 35.5498 43.5243 35.5498C47.3979 35.5498 51.0221 36.0319 53.926 37.24C57.1837 38.501 60.2071 40.2993 62.8702 42.56L56.0983 51.7481C54.3791 50.4788 52.5128 49.4219 50.54 48.6004C48.8498 47.88 46.6719 47.6362 44.7323 47.6362C36.514 47.6362 32.4021 53.9204 32.4021 66.7327C32.1638 73.2719 33.3719 77.8604 35.306 80.7642L35.3004 80.7698ZM101.8 95.76C99.3842 103.258 95.7544 108.822 90.6727 112.928C85.5966 117.046 78.8247 119.218 70.3625 119.944L68.6723 108.583C74.2306 107.852 78.3426 106.644 81.0025 104.704C81.9668 103.984 83.9064 101.806 83.9064 101.806L63.8345 37.4838H80.5149L92.1247 85.6021L104.46 37.4838H120.659L101.8 95.76Z" fill="#ECECEC"/>
</g>
<defs>
<clipPath id="clip0_261_163">
<rect width="132" height="132" fill="white"/>
</clipPath>
</defs>
</svg>
