<svg width="132" height="132" viewBox="0 0 132 132" fill="none" xmlns="http://www.w3.org/2000/svg">
<path d="M117 104C117 117.951 94.3886 129.25 66.5 129.25C38.6114 129.25 16 117.951 16 104V78.5859C19.1689 82.4807 23.6697 85.7127 28.6755 88.2125C38.5987 93.1741 51.9813 96.1094 66.5 96.1094C81.0188 96.1094 94.4013 93.1741 104.325 88.2188C109.33 85.7127 113.831 82.4744 117 78.5859V104Z" fill="#ECECEC"/>
<path d="M66.5 58.2344C81.0188 58.2344 94.4013 55.2991 104.325 50.3438C109.33 47.8377 113.831 44.5994 117 40.7109V66.1251C117 69.2813 105.726 76.1683 100.089 79.7474C91.7374 83.92 79.8699 86.6407 66.5 86.6407C53.1301 86.6407 41.2626 83.9263 32.9112 79.7474C25.4687 76.0231 16 69.2813 16 66.1251V40.7109C19.1689 44.6057 23.6697 47.8377 28.6755 50.3375C38.5987 55.2991 51.9813 58.2344 66.5 58.2344Z" fill="#ECECEC"/>
<path d="M100.09 41.8724C91.7383 46.0449 79.8708 48.7656 66.501 48.7656C53.1311 48.7656 41.2636 46.0513 32.9122 41.8724C29.6612 40.5972 22.3513 36.5509 17.2698 30.0112C16.8424 29.4614 16.5318 28.8301 16.357 28.1561C16.1822 27.482 16.147 26.7793 16.2535 26.0911C16.3987 25.1569 16.6007 24.1911 16.8595 23.5914C21.2277 11.8754 41.7938 3 66.501 3C91.2081 3 111.774 11.8754 116.142 23.5914C116.401 24.1911 116.603 25.1569 116.748 26.0911C116.854 26.7797 116.818 27.4827 116.642 28.1568C116.466 28.8309 116.154 29.4619 115.726 30.0112C110.651 36.5509 103.341 40.5972 100.09 41.8724Z" fill="#ECECEC"/>
</svg>
