<svg width="132" height="132" viewBox="0 0 132 132" fill="none" xmlns="http://www.w3.org/2000/svg">
<path fill-rule="evenodd" clip-rule="evenodd" d="M10 5C7.23858 5 5 7.23858 5 10V123C5 125.761 7.23858 128 10 128H123C125.761 128 128 125.761 128 123V10C128 7.23858 125.761 5 123 5H10ZM19.3792 82.6633C20.0433 83.2954 20.8495 83.6114 21.7982 83.6114L21.7987 83.612C22.7631 83.612 23.5771 83.2954 24.2412 82.6633C24.9216 82.0144 25.2612 81.2444 25.2612 80.3528C25.2612 79.445 24.9216 78.6672 24.2412 78.0183C23.5771 77.3699 22.7626 77.0454 21.7982 77.0454C20.8495 77.0454 20.0433 77.3699 19.3787 78.0183C18.7151 78.6672 18.3828 79.445 18.3828 80.3528C18.3828 81.2444 18.7151 82.0149 19.3792 82.6633ZM53.5594 83.0768H59.726V48.2026H54.2948V70.6739L54.2979 71.4114L54.3074 72.098L54.3231 72.7333L54.3451 73.3172L54.3635 73.6788L54.3844 74.0169L54.4085 74.3325C54.4125 74.3823 54.4167 74.4321 54.4211 74.4818L54.4489 74.7633L54.4803 75.0217L54.5139 75.2576L54.5317 75.3676H54.4374L54.3692 75.234L54.2854 75.0788L54.1858 74.9017L54.0076 74.5961L53.7937 74.2423L53.5437 73.8398L53.1558 73.227L37.4539 48.2026H30.8837V83.0763H36.3391V60.2161L36.3338 59.063L36.3286 58.641L36.3181 58.0514L36.3034 57.5126L36.2851 57.0251L36.2631 56.589L36.2374 56.2032L36.2175 55.9747L36.1965 55.7687L36.174 55.5853L36.1493 55.4254H36.2919C36.5646 56.13 36.9062 56.8059 37.3119 57.4434L53.5594 83.0768ZM67.1988 83.0768H86.2924V78.1886H72.8439V67.877H84.5376V62.9888H72.8439V53.1155H85.5335V48.2026H67.1988V83.0768ZM103.656 53.1155H113.428V48.2026H88.2617V53.1155H98.0108V83.0768H103.656V53.1155Z" fill="#ECECEC"/>
</svg>
