<svg width="132" height="132" viewBox="0 0 132 132" fill="none" xmlns="http://www.w3.org/2000/svg">
<mask id="mask0_259_139" style="mask-type:luminance" maskUnits="userSpaceOnUse" x="5" y="5" width="122" height="122">
<path d="M5.5 5.5H126.5V126.5H5.5V5.5Z" fill="white"/>
</mask>
<g mask="url(#mask0_259_139)">
<path fill-rule="evenodd" clip-rule="evenodd" d="M5.5 10.5C5.5 7.73857 7.73858 5.5 10.5 5.5H121.5C124.261 5.5 126.5 7.73858 126.5 10.5V121.5C126.5 124.261 124.261 126.5 121.5 126.5H10.5C7.73857 126.5 5.5 124.261 5.5 121.5V10.5ZM97.9995 106.938C92.3881 106.938 89.2169 104.014 86.7818 100.031L77.5404 105.401C80.878 111.995 87.6993 117.027 98.2616 117.027C109.061 117.027 117.102 111.42 117.102 101.181C117.102 91.6873 111.647 87.4674 101.987 83.3181L99.1439 82.1031C94.2636 79.9856 92.1511 78.6092 92.1511 75.196C92.1511 72.4382 94.2686 70.3258 97.5961 70.3258C100.858 70.3258 102.96 71.7021 104.912 75.196L113.765 69.514C110.019 62.9246 104.826 60.4088 97.5961 60.4088C87.4422 60.4088 80.9435 66.9025 80.9435 75.433C80.9435 84.6844 86.3885 89.0656 94.5963 92.5595L97.4398 93.7796C102.628 96.0483 105.718 97.4298 105.718 101.327C105.718 104.584 102.708 106.938 97.9995 106.938ZM53.9353 106.863C50.028 106.863 48.3995 104.191 46.6148 101.014L37.3583 106.621C40.0405 112.298 45.314 117.007 54.4143 117.007C64.4925 117.007 71.3946 111.647 71.3946 99.875V61.0541H60.0256V99.7237C60.0256 105.406 57.6712 106.863 53.9353 106.863Z" fill="#ECECEC"/>
</g>
</svg>
