<svg width="292" height="55" viewBox="0 0 292 55" fill="none" xmlns="http://www.w3.org/2000/svg">
<path d="M55 30.5556H34.8333L49.1944 44.9167L44.9167 49.1944L30.5556 34.8333V55H24.4444V34.5278L10.0833 48.8889L5.80556 44.6111L19.5556 30.5556H0V24.4444H20.1667L5.80556 10.0833L10.0833 5.80556L24.4444 20.1667V0H30.5556V19.5556L44.6111 5.5L48.8889 10.0833L34.5278 24.4444H55V30.5556Z" fill="#333333"/>
<path d="M134 30.5556H113.833L128.194 44.9167L123.917 49.1944L109.556 34.8333V55H103.444V34.5278L89.0833 48.8889L84.8056 44.6111L98.5556 30.5556H79V24.4444H99.1667L84.8056 10.0833L89.0833 5.80556L103.444 20.1667V0H109.556V19.5556L123.611 5.5L127.889 10.0833L113.528 24.4444H134V30.5556Z" fill="#333333"/>
<path d="M213 30.5556H192.833L207.194 44.9167L202.917 49.1944L188.556 34.8333V55H182.444V34.5278L168.083 48.8889L163.806 44.6111L177.556 30.5556H158V24.4444H178.167L163.806 10.0833L168.083 5.80556L182.444 20.1667V0H188.556V19.5556L202.611 5.5L206.889 10.0833L192.528 24.4444H213V30.5556Z" fill="#333333"/>
<path d="M292 30.5556H271.833L286.194 44.9167L281.917 49.1944L267.556 34.8333V55H261.444V34.5278L247.083 48.8889L242.806 44.6111L256.556 30.5556H237V24.4444H257.167L242.806 10.0833L247.083 5.80556L261.444 20.1667V0H267.556V19.5556L281.611 5.5L285.889 10.0833L271.528 24.4444H292V30.5556Z" fill="#333333"/>
</svg>
