<svg width="132" height="132" viewBox="0 0 132 132" fill="none" xmlns="http://www.w3.org/2000/svg">
<path d="M5.5 66V121.5C5.5 124.261 7.73858 126.5 10.5 126.5H121.5C124.261 126.5 126.5 124.261 126.5 121.5V10.5C126.5 7.73857 124.261 5.5 121.5 5.5H10.5C7.73857 5.5 5.5 7.73858 5.5 10.5V66ZM103.003 61.1751C105.904 61.8581 108.54 63.3781 110.585 65.5463C111.689 66.726 113.341 68.8927 113.481 69.4258C113.519 69.5846 108.263 73.1087 105.072 75.0788C104.954 75.1582 104.482 74.6666 103.968 73.8952C102.413 71.6303 100.776 70.6472 98.2768 70.4694C94.6127 70.2312 92.2494 72.1445 92.2683 75.3548C92.2491 76.1404 92.4245 76.9184 92.7788 77.6198C93.588 79.2949 95.1043 80.2969 99.7892 82.3274C108.456 86.0482 112.158 88.5098 114.461 91.9961C117.039 95.8946 117.61 102.118 115.878 106.766C113.95 111.787 109.182 115.213 102.485 116.336C100.417 116.71 95.4938 116.65 93.2666 116.238C88.4039 115.372 83.7946 112.967 80.9586 109.817C79.8356 108.596 77.6689 105.385 77.8088 105.17C77.8693 105.091 78.3609 104.777 78.913 104.459L83.4051 101.858L86.8914 99.8308L87.6212 100.912C88.6459 102.466 90.8693 104.595 92.2116 105.302C96.0723 107.352 101.37 107.057 103.99 104.712C105.053 103.828 105.646 102.466 105.567 101.09C105.567 99.6909 105.389 99.0633 104.66 98.0159C103.714 96.6773 101.805 95.5353 96.3483 93.1721C90.1055 90.4723 87.4057 88.8198 84.9668 86.1616C83.4314 84.412 82.2959 82.3487 81.6392 80.1154C81.1855 78.4025 81.0683 74.107 81.4237 72.3941C82.7056 66.3479 87.2733 62.1545 93.83 60.9142C95.9589 60.5021 100.916 60.6609 103.003 61.1751ZM74.6061 66.2382L74.6439 71.1803H58.8875V115.947H47.7403V71.1803H32.0066V66.3365C32.0066 63.6367 32.0671 61.3944 32.1427 61.3339C32.2032 61.2545 41.7735 61.2167 53.3933 61.2356L74.5456 61.2961L74.6061 66.2382Z" fill="#ECECEC"/>
</svg>
