<svg width="256" height="78" viewBox="0 0 256 78" fill="none" xmlns="http://www.w3.org/2000/svg">
<path d="M45.3366 58.9L50.6166 52H4.89656V45.1H58.2366L54.1566 47.5C55.6366 45.54 56.7966 44.06 57.6366 43.06C58.4766 42.06 58.9966 41.48 59.1966 41.32C58.9566 41.12 58.4166 40.5 57.5766 39.46C56.7366 38.42 55.5366 36.86 53.9766 34.78L58.1766 37.3H4.89656V30.4H50.6166L45.3366 23.5H54.1566L67.6566 41.2L54.0966 58.9H45.3366Z" fill="#333333"/>
<path d="M137.337 58.9L142.617 52H96.8966V45.1H150.237L146.157 47.5C147.637 45.54 148.797 44.06 149.637 43.06C150.477 42.06 150.997 41.48 151.197 41.32C150.957 41.12 150.417 40.5 149.577 39.46C148.737 38.42 147.537 36.86 145.977 34.78L150.177 37.3H96.8966V30.4H142.617L137.337 23.5H146.157L159.657 41.2L146.097 58.9H137.337Z" fill="#333333"/>
<path d="M229.337 58.9L234.617 52H188.897V45.1H242.237L238.157 47.5C239.637 45.54 240.797 44.06 241.637 43.06C242.477 42.06 242.997 41.48 243.197 41.32C242.957 41.12 242.417 40.5 241.577 39.46C240.737 38.42 239.537 36.86 237.977 34.78L242.177 37.3H188.897V30.4H234.617L229.337 23.5H238.157L251.657 41.2L238.097 58.9H229.337Z" fill="#333333"/>
</svg>
