<svg width="132" height="132" viewBox="0 0 132 132" fill="none" xmlns="http://www.w3.org/2000/svg">
<path d="M127.6 66.7394C127.6 81.321 100.021 93.1394 66.0004 93.1394C31.9796 93.1394 4.40039 81.321 4.40039 66.7394C4.40039 52.1578 31.9796 40.3394 66.0004 40.3394C100.021 40.3394 127.6 52.1578 127.6 66.7394Z" stroke="#ECECEC" stroke-width="7"/>
<path d="M36.6621 120.903C49.4837 127.855 73.0061 109.226 89.2157 79.3143C105.417 49.3943 108.162 19.5184 95.3405 12.5752C82.5189 5.62315 58.9965 24.2528 42.7869 54.164C26.5861 84.084 23.8405 113.96 36.6621 120.903Z" stroke="#ECECEC" stroke-width="7"/>
<path d="M95.3405 120.903C82.5189 127.855 58.9965 109.226 42.7869 79.3143C26.5861 49.3943 23.8405 19.5184 36.6621 12.5752C49.4837 5.62315 73.0061 24.2528 89.2157 54.164C105.417 84.084 108.162 113.96 95.3405 120.903Z" stroke="#ECECEC" stroke-width="7"/>
<path d="M57.2012 66.739C57.2012 69.0729 58.1283 71.3112 59.7786 72.9615C61.429 74.6118 63.6673 75.539 66.0012 75.539C68.3351 75.539 70.5734 74.6118 72.2237 72.9615C73.874 71.3112 74.8012 69.0729 74.8012 66.739C74.8012 64.4051 73.874 62.1667 72.2237 60.5164C70.5734 58.8661 68.3351 57.939 66.0012 57.939C63.6673 57.939 61.429 58.8661 59.7786 60.5164C58.1283 62.1667 57.2012 64.4051 57.2012 66.739Z" stroke="#ECECEC" stroke-width="7"/>
</svg>
